<?xml version="1.0" standalone="no"?>
<!DOCTYPE svg PUBLIC "-//W3C//DTD SVG 20010904//EN"
 "http://www.w3.org/TR/2001/REC-SVG-20010904/DTD/svg10.dtd">
<svg version="1.0" xmlns="http://www.w3.org/2000/svg"
 width="1280.000000pt" height="1266.000000pt" viewBox="0 0 1280.000000 1266.000000"
 preserveAspectRatio="xMidYMid meet">
<metadata>
Created by potrace 1.15, written by Peter Selinger 2001-2017
</metadata>
<g transform="translate(0.000000,1266.000000) scale(0.100000,-0.100000)"
fill="#000000" stroke="none">
<path d="M0 12073 l0 -586 122 7 c67 4 123 8 124 9 2 1 320 826 439 1140 7 16
-13 17 -339 17 l-346 0 0 -587z m599 485 c-12 -29 -102 -264 -201 -523 -99
-258 -183 -473 -187 -477 -3 -3 -41 -9 -83 -13 l-78 -7 0 536 0 536 285 0 285
0 -21 -52z"/>
<path d="M550 12074 c-124 -322 -225 -589 -225 -593 0 -5 96 -83 214 -174
l213 -166 97 48 c53 26 268 130 478 231 l382 182 66 137 c37 75 73 152 81 172
l15 36 -167 356 -167 357 -381 0 -381 0 -225 -586z m1049 333 c52 -111 123
-261 156 -332 l62 -131 -76 -154 -76 -154 -455 -217 -455 -217 -60 47 c-33 26
-117 91 -187 145 l-127 99 23 61 c47 122 375 972 391 1014 l17 42 347 0 346 0
94 -203z"/>
<path d="M1630 12652 c0 -9 305 -660 313 -668 3 -3 195 -25 428 -50 343 -36
425 -42 435 -32 10 12 455 663 499 731 l17 27 -846 0 c-465 0 -846 -4 -846 -8z
m1558 -104 c-25 -35 -127 -183 -227 -330 -100 -147 -185 -269 -189 -271 -8 -4
-790 78 -796 84 -8 8 -266 563 -266 571 0 4 342 8 761 8 l761 0 -44 -62z"/>
<path d="M3347 12553 c-241 -349 -471 -690 -474 -703 -2 -8 84 -166 191 -350
l194 -335 158 -6 c88 -4 256 -9 374 -12 l215 -5 205 284 c113 157 204 291 202
297 -3 10 -317 866 -337 920 -7 16 -32 17 -330 17 l-324 0 -74 -107z m850
-390 l163 -442 -190 -264 -191 -264 -182 5 c-100 2 -256 7 -346 11 l-164 6
-179 310 c-98 170 -177 315 -176 322 2 7 118 181 258 387 l255 375 295 -2 294
-2 163 -442z"/>
<path d="M4241 12418 c49 -134 124 -337 166 -453 42 -115 79 -213 82 -216 3
-4 157 -19 342 -35 l336 -27 282 232 c154 128 283 237 286 241 3 4 16 102 30
216 14 115 28 226 31 247 l6 37 -825 0 -825 0 89 -242z m1499 179 c0 -61 -52
-413 -62 -422 -7 -7 -107 -90 -223 -185 -115 -95 -231 -191 -257 -212 l-47
-39 -313 26 c-172 15 -313 28 -314 28 -5 9 -294 804 -294 810 0 4 340 7 755 7
623 0 755 -2 755 -13z"/>
<path d="M5875 12628 c-8 -47 -55 -440 -55 -459 0 -10 158 -143 370 -314 337
-270 372 -296 388 -283 9 8 150 126 312 263 162 136 303 255 312 264 15 15 9
35 -85 286 l-102 270 -567 3 -567 2 -6 -32z m1192 -255 c50 -131 88 -241 86
-245 -8 -14 -583 -498 -592 -498 -5 0 -162 122 -348 271 -186 150 -339 273
-340 273 -1 1 10 100 24 219 l26 217 527 0 527 0 90 -237z"/>
<path d="M7102 12648 c3 -7 47 -126 99 -265 l94 -252 210 -80 c115 -44 301
-114 413 -157 l202 -77 163 43 c89 24 167 49 173 56 6 8 14 42 17 76 4 35 22
191 42 348 19 157 35 293 35 303 0 16 -41 17 -726 17 -577 0 -725 -3 -722 -12z
m1393 -55 c-2 -10 -21 -157 -41 -328 -20 -170 -38 -312 -40 -314 -2 -2 -68
-21 -146 -42 l-143 -39 -235 89 c-129 49 -306 117 -394 150 -87 33 -159 61
-161 63 -1 2 -36 93 -78 203 -41 110 -78 208 -82 218 -7 16 28 17 658 17 628
0 665 -1 662 -17z"/>
<path d="M8630 12650 c0 -6 -20 -178 -45 -382 -25 -205 -42 -375 -38 -379 27
-23 685 -529 689 -529 3 0 105 39 227 86 122 47 299 115 392 151 94 36 177 73
186 82 9 9 77 122 152 252 l137 237 -33 243 -33 244 -817 3 c-570 1 -817 -1
-817 -8z m1590 -47 c0 -5 13 -102 29 -217 l28 -209 -136 -233 -135 -234 -96
-36 c-52 -21 -220 -86 -374 -146 -153 -59 -284 -108 -290 -108 -6 0 -155 112
-331 249 -236 183 -319 253 -318 267 13 120 75 634 79 652 l4 22 770 0 c424 0
770 -3 770 -7z"/>
<path d="M10370 12646 c0 -8 -5 -16 -12 -18 -12 -4 -10 -23 33 -330 8 -55 15
-78 25 -78 8 0 14 -7 14 -15 0 -8 6 -15 14 -15 17 0 1266 -148 1319 -156 30
-5 37 -3 37 10 0 9 6 16 13 16 9 0 10 58 4 281 -8 257 -10 282 -28 300 -18 18
-42 19 -719 19 -597 0 -700 -2 -700 -14z m1393 -208 c4 -95 7 -212 7 -260 0
-78 -2 -88 -18 -88 -27 0 -1295 150 -1299 154 -2 1 -12 70 -23 152 -11 82 -23
164 -26 182 l-5 32 679 0 679 0 6 -172z"/>
<path d="M11910 12645 c0 -8 -5 -15 -11 -15 -17 0 -1 -583 17 -625 17 -41 92
-131 106 -127 6 2 14 -1 17 -7 6 -9 105 12 694 140 29 7 47 16 47 25 0 8 5 14
10 14 6 0 10 102 10 285 0 272 -1 286 -20 305 -19 19 -33 20 -445 20 -371 0
-425 -2 -425 -15z m838 -307 l-3 -272 -80 -18 c-44 -10 -201 -44 -349 -76
l-268 -59 -34 36 c-60 64 -61 71 -68 379 l-7 282 406 0 405 0 -2 -272z"/>
<path d="M10410 12109 c0 -4 -8 -9 -17 -11 -23 -7 -258 -413 -258 -447 -1 -20
88 -123 388 -454 233 -255 395 -426 403 -423 7 3 14 0 17 -7 2 -8 71 15 198
65 107 42 310 122 452 178 141 56 255 106 252 111 -4 5 0 9 7 9 18 0 122 651
106 661 -6 4 -8 11 -5 16 8 13 -94 129 -111 125 -8 -2 -11 1 -7 7 3 6 -2 11
-12 11 -10 1 -332 38 -715 83 -384 46 -698 80 -698 76z m723 -129 l682 -80 51
-56 c29 -32 50 -64 48 -73 -2 -9 -24 -151 -49 -316 -25 -164 -47 -300 -48
-301 -2 -2 -623 -247 -768 -304 l-104 -40 -21 23 c-12 12 -184 201 -383 420
l-362 398 118 204 c83 145 123 205 136 205 10 0 325 -36 700 -80z"/>
<path d="M5510 11869 c-146 -120 -269 -224 -273 -231 -5 -8 59 -174 168 -438
97 -234 193 -467 213 -517 20 -51 39 -93 42 -93 3 0 200 139 439 308 l434 308
-2 99 c-3 197 37 145 -370 472 -196 157 -363 292 -371 299 -13 10 -58 -23
-280 -207z m612 -125 c341 -275 343 -276 351 -321 4 -25 6 -79 5 -120 l-3 -76
-394 -279 c-216 -154 -397 -276 -401 -271 -5 4 -77 175 -160 378 -219 531
-233 565 -229 569 160 133 482 396 485 396 2 0 158 -124 346 -276z"/>
<path d="M6940 11775 l-335 -284 0 -41 c1 -22 2 -85 3 -139 l2 -100 368 -302
c202 -166 372 -306 378 -311 8 -6 122 177 358 573 191 320 345 583 344 585 -2
1 -177 69 -388 149 -212 81 -387 148 -390 150 -3 2 -156 -124 -340 -280z m680
95 c118 -45 249 -95 292 -111 l76 -30 -314 -527 c-173 -290 -319 -527 -324
-527 -5 0 -162 126 -350 280 l-340 280 -2 92 c-1 51 -2 104 -2 117 -1 18 61
76 312 289 l314 265 61 -23 c34 -13 159 -60 277 -105z"/>
<path d="M12655 11915 c-55 -12 -209 -46 -342 -75 -172 -37 -243 -57 -243 -66
0 -8 -7 -14 -15 -14 -8 0 -15 -6 -15 -12 0 -7 -22 -152 -49 -323 -27 -170 -46
-312 -43 -315 4 -3 7 -11 7 -17 0 -17 338 -452 347 -447 3 2 8 0 10 -5 6 -15
451 -96 456 -83 2 7 10 12 18 12 12 0 14 98 14 665 0 652 0 665 -20 685 -11
11 -21 20 -22 19 -2 0 -48 -11 -103 -24z m95 -675 l0 -640 -22 5 c-13 2 -106
21 -208 40 -102 20 -190 41 -197 48 -51 51 -330 423 -327 436 2 9 24 148 49
310 25 162 47 296 49 298 2 2 127 31 277 64 151 33 290 64 309 68 77 19 70 86
70 -629z"/>
<path d="M1860 11736 l-78 -164 263 -671 c144 -370 265 -674 267 -677 3 -2 55
-1 116 2 l111 7 317 436 c175 240 321 441 326 447 5 7 -69 144 -188 350 -108
186 -198 340 -199 342 -3 3 -815 91 -843 92 -7 0 -49 -74 -92 -164z m547 65
c194 -21 355 -39 357 -42 2 -2 85 -145 185 -317 l181 -313 -296 -407 c-163
-224 -304 -414 -313 -423 -11 -11 -41 -18 -96 -22 l-80 -6 -253 647 c-139 356
-252 650 -252 653 0 4 30 68 66 143 l66 135 41 -5 c23 -3 201 -22 394 -43z"/>
<path d="M8302 11785 c-85 -24 -155 -45 -157 -47 -4 -4 -701 -1172 -715 -1199
-8 -15 -4 -54 16 -157 15 -75 30 -141 34 -145 6 -7 237 23 1225 163 160 23
313 44 342 47 l51 6 6 46 c5 41 23 212 69 666 13 127 13 130 -7 146 -358 282
-673 519 -690 518 -12 0 -90 -20 -174 -44z m495 -251 c175 -136 322 -250 327
-255 9 -8 -62 -758 -74 -772 -4 -4 -164 -30 -356 -57 -940 -133 -1137 -160
-1157 -160 -20 0 -24 10 -43 112 l-21 113 349 585 c192 322 353 588 357 592 5
6 267 84 293 87 4 1 150 -110 325 -245z"/>
<path d="M4279 11387 c-112 -155 -203 -288 -202 -297 0 -15 368 -868 378 -878
8 -9 1019 -100 1027 -93 3 3 31 96 62 205 l56 199 -101 246 c-56 135 -155 377
-221 536 -66 160 -123 293 -127 297 -3 4 -141 19 -306 33 -165 13 -314 27
-332 29 -31 4 -34 1 -234 -277z m555 198 c153 -13 280 -26 282 -28 2 -2 100
-236 217 -520 l214 -517 -50 -175 -50 -175 -31 1 c-17 0 -233 19 -479 42
l-449 42 -179 415 c-98 228 -177 420 -175 425 2 6 85 124 185 263 162 223 186
252 210 252 15 0 152 -11 305 -25z"/>
<path d="M9655 11437 l-390 -152 -44 -428 -44 -428 23 -49 c13 -28 24 -50 25
-50 3 0 1376 -363 1425 -377 13 -3 36 66 119 360 56 201 101 371 99 379 -4 19
-800 896 -813 897 -5 0 -185 -68 -400 -152z m778 -332 l387 -426 -93 -330
c-52 -181 -96 -331 -98 -333 -2 -2 -143 33 -314 78 -170 46 -478 127 -684 182
-370 98 -374 99 -388 130 -14 28 -11 68 27 435 26 252 46 407 53 411 7 4 66
28 132 53 66 25 221 85 345 134 124 49 230 90 236 90 5 1 184 -190 397 -424z"/>
<path d="M1255 11298 c-253 -121 -461 -221 -463 -223 -2 -2 13 -137 35 -301
l39 -297 449 -283 c405 -254 452 -282 470 -270 11 7 116 70 233 140 116 70
212 132 212 137 0 11 -496 1284 -508 1305 -5 8 -162 -62 -467 -208z m595 -253
c84 -214 190 -488 237 -608 47 -120 84 -220 82 -221 -17 -15 -395 -239 -403
-239 -12 0 -823 507 -843 527 -14 13 -83 527 -73 539 14 16 835 405 842 398 3
-3 74 -181 158 -396z"/>
<path d="M63 11413 l-63 -4 0 -756 c0 -603 3 -753 12 -745 7 5 182 132 388
282 206 150 378 275 382 279 5 4 -61 539 -74 598 -2 7 -102 89 -223 183 l-220
170 -70 -2 c-38 -1 -98 -3 -132 -5z m390 -203 c191 -148 206 -162 211 -197 12
-72 66 -486 66 -503 0 -11 -113 -99 -307 -241 -170 -122 -323 -234 -340 -247
l-33 -24 0 680 0 681 43 4 c23 2 67 4 98 5 l57 2 205 -160z"/>
<path d="M6124 10820 l-448 -318 -58 -204 c-32 -112 -58 -209 -58 -216 0 -11
88 -151 109 -174 3 -3 213 -58 465 -122 l459 -116 391 224 c336 191 393 228
407 256 15 31 14 41 -17 194 -19 89 -34 162 -34 163 0 1 -705 583 -746 615
-21 17 -30 11 -470 -302z m819 -50 l353 -291 28 -143 c15 -79 25 -152 22 -162
-7 -22 -741 -444 -771 -444 -11 1 -211 49 -445 109 l-425 107 -47 70 -48 69
53 188 c30 103 60 194 68 202 41 41 835 595 846 591 7 -3 172 -136 366 -296z"/>
<path d="M3045 10793 c-116 -158 -260 -357 -322 -441 l-112 -152 42 -39 c255
-235 505 -450 517 -446 12 3 630 112 897 157 l63 11 107 125 c60 69 116 136
126 148 17 22 14 31 -171 460 -136 314 -194 439 -208 444 -10 4 -179 10 -374
14 l-355 8 -210 -289z m871 221 l51 -5 177 -410 c153 -354 176 -413 164 -427
-7 -9 -53 -64 -102 -122 -49 -58 -92 -108 -95 -112 -5 -6 -906 -168 -935 -168
-9 0 -394 337 -484 424 -13 13 11 47 486 694 l105 144 291 -6 c160 -4 314 -9
342 -12z"/>
<path d="M11411 10855 c-293 -116 -437 -178 -441 -189 -3 -10 -9 -16 -14 -14
-13 5 -216 -721 -211 -756 5 -45 43 -128 55 -121 5 3 8 0 5 -7 -6 -19 826
-589 842 -576 7 5 16 7 21 4 12 -7 560 1377 549 1385 -5 4 -7 12 -3 18 5 8
-246 350 -303 412 -26 29 -75 13 -500 -156z m614 -74 c80 -104 145 -194 145
-200 0 -5 -115 -299 -256 -653 -141 -354 -260 -653 -265 -665 -8 -21 -31 -7
-396 244 -213 146 -397 274 -408 284 -12 10 -29 41 -39 68 l-18 50 102 358
c55 197 104 361 108 365 13 13 866 347 874 342 4 -3 72 -90 153 -193z"/>
<path d="M12320 10541 c0 -6 -6 -11 -14 -11 -9 0 -66 -132 -161 -372 -81 -205
-194 -490 -251 -633 -57 -143 -100 -261 -94 -263 5 -2 10 -10 10 -18 0 -8 7
-14 16 -14 19 0 875 107 922 115 18 3 30 10 27 16 -4 5 1 9 9 9 14 0 16 57 16
531 0 482 -2 532 -17 547 -11 11 -83 30 -207 54 -105 21 -206 40 -223 44 -22
4 -33 2 -33 -5z m233 -86 l197 -39 -2 -510 -3 -511 -442 -56 c-256 -32 -443
-51 -443 -46 0 25 476 1207 485 1204 6 -2 99 -21 208 -42z"/>
<path d="M412 10103 l-411 -298 2 -269 2 -269 670 -222 c440 -145 675 -219
685 -213 8 4 32 22 52 40 38 33 39 36 167 484 71 248 132 460 135 471 6 18
-51 57 -433 297 -242 152 -444 276 -449 276 -5 0 -194 -134 -420 -297z m836
-19 c224 -141 408 -257 409 -258 2 -1 -55 -203 -125 -448 -120 -420 -129 -447
-159 -472 l-32 -27 -645 213 -646 213 0 235 0 236 387 282 c214 155 392 282
396 282 5 0 192 -115 415 -256z"/>
<path d="M8365 10275 c-396 -57 -759 -109 -807 -115 -139 -20 -156 23 243
-622 188 -304 345 -557 350 -562 5 -6 41 5 91 26 46 20 234 100 418 178 184
78 339 146 343 150 4 4 41 222 81 484 l72 477 -19 44 c-12 28 -26 45 -36 44
-9 -1 -340 -48 -736 -104z m731 21 c3 -13 -22 -207 -56 -432 -34 -225 -65
-429 -69 -454 l-6 -44 -394 -168 c-217 -93 -395 -167 -397 -166 -24 26 -654
1062 -648 1067 5 4 212 36 459 70 248 35 583 82 745 106 361 52 358 52 366 21z"/>
<path d="M9226 10221 c-9 -40 -136 -878 -136 -894 0 -15 626 -572 644 -572 6
0 193 187 415 415 223 228 440 452 484 496 l79 82 -23 60 -23 60 -156 41
c-197 53 -904 240 -1117 296 l-162 42 -5 -26z m401 -130 c186 -49 478 -127
648 -172 171 -45 319 -84 331 -86 13 -3 26 -18 33 -40 l13 -35 -104 -106
c-554 -569 -812 -832 -817 -832 -3 0 -118 100 -256 221 -137 122 -269 238
-292 259 l-42 37 60 394 c67 447 67 449 80 449 5 0 161 -40 346 -89z"/>
<path d="M2335 10141 c-41 -5 -92 -32 -287 -150 -130 -78 -241 -148 -246 -154
-7 -10 -261 -888 -266 -921 0 -5 40 -22 89 -38 1142 -373 1189 -388 1201 -388
5 0 66 61 137 135 l127 135 0 217 c0 120 3 322 6 448 l6 230 -278 248 -277
247 -81 -1 c-45 -1 -103 -5 -131 -8z m453 -276 l262 -235 -5 -373 c-3 -204 -8
-399 -10 -431 l-5 -60 -103 -105 c-56 -59 -108 -107 -114 -109 -7 -2 -70 15
-140 38 -71 23 -319 104 -553 180 -234 76 -445 145 -469 152 -24 7 -45 18 -48
24 -5 12 233 854 244 864 4 4 110 68 235 143 242 146 229 141 384 145 l61 2
261 -235z"/>
<path d="M4320 9984 c-83 -97 -124 -154 -123 -168 1 -18 39 -240 177 -1051
l34 -200 169 -162 c92 -89 172 -163 176 -163 5 0 114 85 242 190 l234 190 25
82 c233 771 346 1160 340 1170 -3 7 -27 46 -53 85 -37 59 -52 74 -76 78 -16 2
-232 23 -480 45 -247 22 -470 43 -495 46 l-45 5 -125 -147z m689 42 l453 -41
42 -65 43 -65 -181 -603 -181 -602 -214 -174 -214 -175 -151 144 -151 144 -28
163 c-14 90 -59 348 -97 573 -39 226 -72 431 -73 457 -2 45 0 49 103 171 l104
124 46 -5 c25 -2 249 -23 499 -46z"/>
<path d="M7023 9827 c-204 -117 -374 -214 -377 -217 -3 -3 34 -269 83 -590 67
-452 91 -585 102 -587 8 -1 228 -9 489 -18 261 -8 498 -17 526 -20 l51 -5 96
254 c54 139 97 259 97 266 0 10 -671 1104 -689 1122 -3 3 -173 -89 -378 -205z
m686 -384 c178 -289 324 -532 324 -539 0 -7 -38 -113 -84 -235 l-84 -222 -195
7 c-355 11 -805 28 -807 30 -2 2 -74 469 -135 883 -17 117 -30 215 -27 217 9
8 674 385 679 385 3 0 151 -237 329 -526z"/>
<path d="M5661 9788 c-5 -18 -80 -267 -167 -553 -86 -286 -162 -539 -169 -563
-10 -33 -11 -44 -2 -47 28 -10 1303 -295 1317 -295 8 0 34 19 58 41 l43 41
-86 571 c-47 315 -87 581 -90 593 -4 17 -23 26 -107 48 -157 40 -721 183 -756
191 -28 6 -31 3 -41 -27z m373 -109 c176 -45 358 -91 402 -102 l82 -21 17
-110 c9 -61 47 -313 84 -561 l68 -450 -26 -27 -26 -28 -355 80 c-195 44 -476
108 -625 141 -148 33 -272 62 -274 65 -2 2 33 126 79 276 45 150 119 396 163
545 45 150 84 273 86 273 2 0 148 -37 325 -81z"/>
<path d="M3635 9718 c-247 -43 -451 -80 -453 -82 -3 -4 -21 -860 -18 -864 5
-4 1151 -180 1155 -176 2 2 -38 245 -88 541 -123 726 -110 663 -130 662 -9 -1
-218 -37 -466 -81z m445 15 c0 -6 128 -768 165 -982 8 -46 15 -87 15 -90 0 -4
-235 29 -522 73 l-522 81 2 210 c1 116 5 291 8 391 l7 181 401 70 c413 73 446
78 446 66z"/>
<path d="M10270 9180 c-261 -269 -475 -492 -475 -497 0 -4 -3 -12 -6 -18 -3
-5 18 -129 47 -275 71 -358 74 -371 84 -365 5 3 12 -1 17 -9 7 -12 48 -13 308
-1 186 8 301 17 303 24 2 5 9 8 15 6 16 -5 977 1067 969 1080 -4 6 -7 17 -7
25 0 21 -728 518 -758 518 -17 0 -139 -119 -497 -488z m859 195 c193 -132 350
-243 348 -247 -1 -3 -212 -240 -469 -526 l-467 -520 -63 -5 c-53 -5 -438 -22
-503 -22 -18 0 -25 27 -80 302 l-61 303 466 479 c256 264 468 479 472 478 4
-1 164 -110 357 -242z"/>
<path d="M12255 9204 c-269 -35 -493 -63 -497 -64 -5 0 -7 -3 -6 -7 0 -5 -2
-15 -6 -23 -7 -16 595 -1205 607 -1198 3 1 12 -4 19 -13 17 -21 391 -96 396
-80 2 6 10 11 18 11 12 0 14 103 14 700 0 687 0 700 -20 720 -11 11 -23 19
-27 19 -5 -1 -228 -30 -498 -65z m495 -667 l0 -674 -180 36 -180 36 -296 578
c-163 318 -294 580 -292 581 5 5 871 113 911 115 l37 1 0 -673z"/>
<path d="M8605 9073 c-236 -101 -432 -189 -436 -195 -4 -6 -51 -125 -104 -265
l-97 -254 138 -286 c77 -157 144 -288 151 -290 11 -4 288 13 1117 72 192 14
360 25 375 25 19 1 35 13 59 46 l33 44 -66 333 c-36 182 -69 340 -71 350 -4
14 -490 453 -649 587 -19 16 -39 9 -450 -167z m735 -152 l315 -278 66 -331 66
-331 -21 -25 -21 -25 -729 -50 c-402 -28 -731 -49 -732 -48 -1 1 -61 120 -132
263 l-131 261 93 244 94 244 408 177 c225 97 409 177 409 177 1 1 142 -124
315 -278z"/>
<path d="M0 8462 l0 -718 138 -35 137 -36 450 244 c248 134 455 249 461 256 7
7 38 138 69 292 54 264 56 280 39 292 -10 7 -22 13 -28 13 -5 0 -287 92 -627
205 -340 113 -622 205 -628 205 -8 0 -11 -209 -11 -718z m661 452 c344 -114
589 -200 589 -207 0 -14 -99 -500 -103 -503 -1 -1 -199 -109 -440 -239 l-439
-237 -109 28 -109 29 0 662 c0 483 3 663 11 663 6 0 276 -88 600 -196z"/>
<path d="M11136 8550 c-390 -433 -475 -533 -473 -554 2 -21 77 -86 415 -360
311 -251 420 -333 440 -333 19 0 122 73 384 275 197 151 355 279 351 284 -3 6
0 13 6 17 7 5 -93 211 -292 601 -278 543 -306 593 -330 596 -23 2 -81 -59
-501 -526z m787 -94 c158 -311 287 -568 286 -573 0 -12 -680 -528 -694 -527
-6 1 -189 144 -406 319 -217 175 -396 320 -397 321 -5 3 911 1024 918 1024 3
0 134 -254 293 -564z"/>
<path d="M1443 8798 l-48 -40 -62 -297 c-34 -163 -60 -302 -57 -310 4 -13 579
-898 593 -913 3 -4 67 -21 143 -37 l136 -31 354 151 c194 83 356 154 360 158
7 7 -48 847 -60 900 l-7 35 -190 62 c-258 85 -986 322 -1057 344 l-56 17 -49
-39z m342 -108 c132 -43 404 -132 605 -197 l365 -119 27 -390 c15 -214 27
-409 25 -433 l-2 -44 -330 -142 -331 -141 -116 25 c-65 15 -124 33 -131 41 -8
8 -140 208 -293 444 -190 291 -278 435 -276 450 2 11 28 138 58 281 51 247 55
261 85 288 22 20 36 26 52 21 12 -3 130 -42 262 -84z"/>
<path d="M3050 8603 c-47 -49 -104 -109 -128 -134 l-43 -45 35 -474 c24 -341
37 -475 46 -478 7 -3 132 -64 279 -136 146 -73 307 -151 357 -175 l90 -43 490
342 c269 188 492 345 497 349 6 6 36 287 37 347 0 6 -80 88 -178 182 l-179
171 -589 90 c-324 50 -598 91 -609 91 -12 0 -54 -34 -105 -87z m700 -53 l583
-90 131 -127 c72 -70 145 -140 163 -157 l31 -31 -13 -149 c-10 -121 -16 -151
-31 -166 -33 -30 -918 -643 -934 -646 -8 -2 -166 72 -350 164 l-335 167 -32
445 -31 444 110 118 c61 65 113 118 117 118 4 0 270 -40 591 -90z"/>
<path d="M5060 8382 c-113 -92 -220 -179 -238 -193 l-33 -25 -14 -159 c-8 -88
-15 -169 -15 -181 0 -14 138 -148 465 -450 256 -236 470 -431 476 -433 8 -2
677 319 697 335 9 7 210 970 204 975 -4 3 -203 50 -442 104 -239 53 -531 119
-649 146 -118 27 -222 49 -230 49 -9 0 -108 -76 -221 -168z m800 -12 c294 -66
569 -128 610 -137 41 -9 76 -18 78 -18 2 -2 -188 -898 -192 -902 -9 -11 -639
-314 -646 -311 -5 2 -194 174 -421 383 -226 209 -426 394 -445 410 l-35 30 14
153 c9 102 19 158 28 167 8 8 109 90 224 184 153 124 215 169 230 165 11 -2
261 -58 555 -124z"/>
<path d="M6745 8307 l-55 -52 -60 -285 c-34 -157 -81 -377 -105 -490 -24 -113
-42 -206 -41 -207 7 -7 672 -315 681 -316 8 0 420 183 837 371 l66 30 52 164
c28 90 55 174 59 188 6 20 -18 77 -136 315 -99 201 -149 291 -161 292 -9 1
-233 9 -497 18 -264 8 -504 17 -533 19 -52 5 -53 4 -107 -47z m610 -22 c204
-8 402 -15 440 -15 l71 0 132 -267 c73 -148 132 -272 132 -277 0 -4 -23 -80
-52 -168 l-51 -161 -91 -42 c-50 -23 -245 -110 -432 -194 l-341 -153 -59 30
c-33 16 -169 80 -304 142 -135 62 -248 116 -253 119 -4 4 18 124 48 267 158
737 140 665 179 701 35 32 38 33 123 33 49 0 255 -7 458 -15z"/>
<path d="M775 7855 c-236 -129 -434 -236 -439 -238 -7 -2 415 -1225 429 -1245
3 -4 1012 816 1020 829 7 10 -561 889 -574 889 -3 -1 -199 -106 -436 -235z
m689 -234 c141 -217 258 -398 259 -401 3 -13 -925 -762 -933 -753 -9 9 -391
1090 -394 1111 -1 14 795 452 805 443 3 -3 122 -183 263 -400z"/>
<path d="M10187 7935 c-184 -8 -261 -15 -266 -24 -4 -6 -12 -11 -18 -9 -16 5
-66 -59 -52 -68 8 -5 8 -9 -1 -14 -10 -6 -8 -115 9 -521 23 -534 26 -579 41
-579 5 0 7 -6 5 -12 -6 -16 976 -470 989 -458 5 5 14 6 20 4 12 -4 443 345
444 360 0 5 5 12 11 15 17 11 104 563 90 572 -6 4 -9 11 -5 17 7 12 -862 718
-881 716 -7 -1 -13 2 -13 7 0 10 -26 10 -373 -6z m789 -381 c236 -190 432
-349 436 -353 4 -4 -12 -130 -37 -280 -43 -260 -46 -273 -73 -295 -15 -13
-112 -93 -217 -179 -182 -149 -190 -155 -215 -142 -14 7 -227 106 -475 220
-247 114 -452 209 -455 211 -2 3 -10 127 -16 277 -7 150 -18 392 -25 538 -11
256 -11 268 7 292 22 29 45 32 374 46 107 4 211 9 231 9 34 2 69 -24 465 -344z"/>
<path d="M11947 7514 c-209 -160 -378 -295 -377 -299 1 -4 -3 -11 -9 -14 -14
-9 -103 -555 -91 -559 6 -2 10 -9 10 -16 0 -7 136 -70 303 -141 166 -70 436
-185 599 -255 210 -90 300 -124 307 -117 8 8 11 8 11 0 0 -8 12 -8 40 -1 22 6
40 16 40 24 0 8 5 14 10 14 7 0 10 265 10 775 0 510 -3 775 -10 775 -5 0 -10
6 -10 13 0 16 -423 103 -428 87 -2 -6 -9 -7 -15 -2 -8 6 -141 -91 -390 -284z
m549 217 c76 -16 165 -34 197 -41 l57 -11 0 -754 0 -753 -28 -10 c-25 -9 -55
1 -233 77 -112 48 -376 161 -586 250 -304 130 -383 167 -383 182 0 10 18 129
40 265 31 194 43 249 57 260 10 7 178 136 373 288 195 151 358 275 361 275 3
1 68 -12 145 -28z"/>
<path d="M9620 7793 c-25 -2 -339 -24 -699 -49 -360 -24 -657 -47 -660 -50 -3
-3 -32 -85 -63 -182 l-56 -177 176 -348 c97 -192 184 -353 194 -358 10 -5 192
-77 405 -159 l387 -149 250 186 c138 102 252 186 253 187 1 1 -9 240 -22 531
-14 292 -25 540 -25 553 0 24 -14 25 -140 15z m90 -47 c0 -3 9 -200 20 -438
10 -238 21 -468 22 -510 l3 -77 -229 -171 -228 -172 -382 147 -381 147 -169
332 -170 331 49 158 c27 86 54 157 60 158 5 0 316 22 690 48 374 27 688 49
698 50 9 0 17 -1 17 -3z"/>
<path d="M4230 7404 c-261 -184 -481 -338 -489 -343 -11 -7 -8 -90 23 -517 20
-280 39 -523 41 -539 5 -29 14 -34 214 -119 l209 -88 519 192 c285 106 590
219 677 251 88 33 160 60 161 61 3 5 65 532 65 554 0 14 -141 151 -465 450
-256 236 -468 430 -473 430 -4 1 -221 -148 -482 -332z m920 -135 c239 -221
439 -404 443 -408 9 -9 -49 -512 -61 -522 -4 -3 -117 -47 -252 -97 -135 -50
-426 -158 -648 -240 l-403 -150 -187 80 -188 79 -13 182 c-6 100 -23 328 -36
506 -14 179 -23 327 -21 329 17 17 913 641 921 641 6 1 206 -179 445 -400z"/>
<path d="M0 7030 l0 -630 335 0 c184 0 335 1 335 3 0 8 -419 1189 -423 1193
-5 6 -224 63 -239 64 -5 0 -8 -283 -8 -630z m215 511 c4 -9 89 -250 190 -536
101 -286 186 -528 190 -537 7 -17 -10 -18 -269 -18 l-276 0 0 574 0 574 79
-20 c51 -13 82 -26 86 -37z"/>
<path d="M2553 7259 c-280 -120 -353 -155 -353 -169 0 -11 38 -254 84 -542 46
-288 88 -547 93 -577 7 -50 11 -55 38 -62 17 -4 281 -17 587 -30 l557 -23 86
58 87 57 -6 47 c-3 26 -8 83 -11 127 -20 287 -66 900 -68 902 -3 3 -739 363
-741 363 0 -1 -160 -69 -353 -151z m702 -75 c187 -92 341 -168 343 -169 2 -2
67 -850 74 -970 l2 -50 -63 -44 -63 -44 -252 11 c-138 6 -386 17 -551 23 -165
7 -304 15 -308 19 -7 6 -189 1113 -184 1116 30 16 637 272 647 273 8 1 168
-74 355 -165z"/>
<path d="M7995 7240 c-44 -20 -239 -108 -434 -195 l-354 -159 7 -95 c19 -290
66 -966 72 -1027 l6 -71 47 -11 c25 -6 110 -26 188 -45 l143 -34 377 500 377
501 -169 334 c-94 184 -172 335 -175 336 -3 2 -41 -14 -85 -34z m216 -329 c83
-161 148 -299 145 -307 -3 -7 -163 -223 -356 -479 -261 -346 -356 -465 -368
-461 -9 2 -79 19 -154 37 l-137 33 -5 41 c-3 22 -10 112 -16 200 -5 88 -21
322 -35 520 -14 198 -22 361 -18 363 4 1 181 81 393 176 212 96 389 173 393
172 4 -1 76 -133 158 -295z"/>
<path d="M6083 7034 c-194 -95 -353 -179 -353 -186 0 -7 -16 -137 -34 -288
l-34 -275 167 -255 167 -255 397 -133 397 -134 208 88 c114 48 209 89 211 90
2 2 -4 103 -13 226 -8 123 -27 392 -42 598 -14 206 -26 376 -27 376 -1 1 -155
72 -342 159 -187 86 -342 158 -345 160 -3 1 -164 -76 -357 -171z m668 -30
c173 -80 318 -149 322 -153 8 -8 88 -1123 81 -1130 -3 -3 -86 -40 -185 -82
l-181 -77 -377 126 -377 125 -157 236 c-115 174 -157 244 -157 266 0 51 58
506 65 513 4 5 642 320 651 322 0 0 142 -66 315 -146z"/>
<path d="M1359 6749 c-272 -221 -504 -409 -516 -419 l-22 -17 33 -118 c19 -64
38 -121 43 -125 4 -5 289 -81 632 -169 l624 -161 74 67 c41 37 77 72 79 78 3
6 -38 276 -91 600 -52 325 -95 595 -95 601 0 8 -221 64 -256 64 -7 0 -234
-181 -505 -401z m628 325 c74 -16 83 -20 88 -43 5 -27 80 -488 140 -866 19
-121 37 -230 40 -241 4 -16 -9 -33 -56 -74 l-61 -53 -46 11 c-26 6 -126 32
-222 57 -182 48 -595 154 -810 209 l-125 32 -28 93 c-16 51 -25 96 -21 101 5
4 229 186 498 404 319 259 494 395 505 392 9 -3 53 -13 98 -22z"/>
<path d="M9606 6450 c-132 -98 -243 -183 -248 -188 -8 -8 -67 -574 -68 -644 0
-18 656 -624 674 -622 6 1 213 157 459 349 l447 347 0 237 0 236 -498 229
c-273 126 -504 230 -512 232 -8 2 -123 -77 -254 -176z m736 -98 l473 -219 2
-209 2 -209 -422 -327 c-232 -180 -425 -328 -428 -330 -4 -2 -147 125 -318
281 l-311 284 6 51 c3 28 15 165 28 304 20 221 26 255 42 266 11 8 113 84 229
170 115 86 212 156 216 156 4 0 220 -98 481 -218z"/>
<path d="M8109 6055 l-372 -496 249 -252 c137 -139 254 -253 259 -255 9 -2
939 538 958 557 10 10 68 634 59 642 -7 6 -768 299 -777 299 -3 0 -172 -223
-376 -495z m745 301 c191 -74 351 -137 354 -141 9 -9 -39 -537 -52 -563 -7
-15 -165 -113 -455 -283 l-445 -260 -174 173 c-95 95 -196 199 -224 231 l-50
57 103 138 c193 258 590 782 592 782 1 0 159 -61 351 -134z"/>
<path d="M11185 6362 l-230 -188 -2 -245 -2 -244 224 -245 c123 -134 228 -246
232 -247 4 -1 158 -18 342 -38 271 -29 337 -33 346 -23 16 17 523 880 527 897
2 7 -61 39 -162 82 -725 311 -1029 439 -1036 439 -5 0 -112 -85 -239 -188z
m817 -110 l557 -238 -243 -412 c-134 -227 -247 -417 -252 -421 -13 -12 -636
56 -650 72 -6 6 -101 112 -212 233 l-202 222 0 219 0 219 211 172 c116 95 216
172 223 172 6 0 262 -107 568 -238z"/>
<path d="M0 5815 c0 -387 3 -505 12 -505 17 0 632 131 637 135 2 2 41 136 87
296 l84 292 -39 135 c-22 74 -45 139 -53 143 -7 5 -174 9 -370 9 l-358 0 0
-505z m709 418 c6 -21 21 -74 34 -119 l24 -81 -77 -267 c-42 -146 -81 -270
-86 -275 -7 -7 -524 -121 -548 -121 -3 0 -6 203 -6 450 l0 450 325 0 324 0 10
-37z"/>
<path d="M5550 6205 c-19 -8 -116 -44 -215 -81 -99 -36 -238 -88 -310 -114
-253 -94 -492 -182 -615 -227 -69 -26 -126 -47 -128 -48 -1 -1 73 -172 166
-380 l168 -378 372 -124 c205 -69 375 -124 377 -122 2 3 129 230 283 506 l279
501 -159 241 c-87 132 -164 241 -171 240 -7 0 -28 -6 -47 -14z m176 -255 c77
-116 138 -215 137 -219 -3 -13 -512 -924 -521 -933 -5 -5 -161 43 -348 106
l-339 114 -152 338 c-84 187 -152 341 -153 344 0 6 38 21 295 115 99 37 239
89 310 115 72 26 211 78 310 114 99 37 207 78 240 91 33 13 65 24 71 25 6 0
74 -95 150 -210z"/>
<path d="M12755 6036 c-40 -12 -42 -14 -317 -481 -153 -259 -278 -473 -278
-476 0 -4 108 -196 240 -426 l240 -420 77 -16 c43 -8 79 -14 81 -13 1 2 1 417
0 923 l-3 920 -40 -11z m-5 -920 l0 -854 -36 8 c-20 5 -40 12 -44 17 -26 27
-450 788 -446 799 3 8 112 195 242 417 278 473 274 467 280 467 2 0 4 -384 4
-854z"/>
<path d="M875 5938 c-8 -29 -46 -159 -83 -289 l-69 -235 149 -330 149 -330
457 -53 c251 -29 473 -55 493 -58 l36 -5 6 68 c3 38 29 269 57 513 27 244 49
445 47 447 -1 2 -196 53 -432 114 -697 180 -780 202 -787 206 -4 3 -14 -19
-23 -48z m622 -161 c304 -79 556 -147 560 -150 7 -8 -92 -915 -101 -925 -5 -4
-898 96 -902 101 -1 1 -63 139 -139 307 l-137 305 62 220 c35 121 67 235 72
253 5 17 14 32 21 32 7 0 261 -65 564 -143z"/>
<path d="M3685 5845 l-79 -55 -127 -397 c-70 -219 -190 -598 -268 -842 -116
-362 -140 -446 -129 -456 54 -49 394 -298 417 -305 15 -4 77 -11 138 -15 l110
-7 105 153 c58 85 237 351 398 592 l293 438 -173 388 -173 388 -206 86 c-113
48 -211 87 -217 87 -6 0 -46 -25 -89 -55z m288 -78 l185 -79 157 -351 c87
-194 160 -360 162 -369 3 -10 -137 -228 -372 -580 -208 -310 -379 -564 -380
-566 -2 -2 -52 1 -113 6 l-109 10 -187 142 c-102 77 -186 144 -186 147 0 3 49
160 109 347 101 315 382 1198 400 1256 7 22 127 121 142 117 3 -1 90 -37 192
-80z"/>
<path d="M2283 5753 l-82 -78 -61 -534 -61 -534 29 -31 c28 -31 345 -389 346
-393 3 -6 532 -49 538 -44 4 3 59 170 123 371 64 201 182 567 261 814 79 248
142 451 141 452 -2 2 -216 12 -477 23 -261 12 -520 23 -575 26 l-100 5 -82
-77z m721 -3 c241 -11 440 -21 442 -23 3 -3 -66 -222 -405 -1282 -53 -168 -84
-251 -94 -253 -9 -2 -114 6 -236 17 -121 12 -222 21 -225 21 -2 0 -82 88 -177
197 -171 193 -174 197 -171 237 2 23 28 254 58 515 l54 475 67 62 68 63 90 -5
c50 -3 287 -14 529 -24z"/>
<path d="M5972 5658 c-109 -182 -543 -982 -539 -996 17 -61 232 -580 245 -593
9 -9 71 -52 137 -96 l120 -81 254 9 254 10 94 65 c51 36 93 68 93 71 0 3 27
316 60 696 33 379 58 692 55 695 -5 5 -734 251 -747 252 -3 0 -15 -15 -26 -32z
m380 -139 c183 -61 336 -113 339 -117 5 -6 -78 -1006 -106 -1277 l-6 -60 -78
-53 -78 -53 -240 -6 -239 -6 -118 79 -119 79 -112 284 -113 284 266 478 c147
264 268 479 269 479 1 0 152 -50 335 -111z"/>
<path d="M7043 5531 c-111 -48 -205 -89 -208 -93 -6 -5 -128 -1379 -123 -1383
2 -1 104 -8 227 -16 l223 -14 506 378 c278 208 514 385 525 392 18 12 19 21
12 100 l-7 86 -268 272 -268 272 -204 48 c-111 26 -205 47 -208 46 -3 0 -96
-40 -207 -88z m417 -11 l175 -42 88 -86 c49 -48 164 -166 256 -262 l168 -175
7 -60 6 -60 -506 -379 -506 -379 -111 7 c-62 4 -147 9 -189 13 l-78 6 0 36 c0
36 96 1153 105 1226 l6 41 187 81 c103 44 194 79 202 77 8 -1 94 -21 190 -44z"/>
<path d="M10453 5270 l-450 -351 -8 -101 c-4 -61 -3 -104 3 -110 25 -25 998
-636 1003 -630 4 4 51 147 104 317 53 171 128 409 166 529 l68 219 -36 41
c-127 141 -395 436 -397 436 -1 0 -205 -158 -453 -350z m637 75 c100 -110 184
-205 186 -211 3 -5 -31 -122 -74 -260 -43 -137 -112 -356 -153 -486 -41 -131
-76 -238 -79 -238 -3 0 -212 132 -465 293 l-460 292 4 80 c2 60 7 82 19 91 10
7 199 154 422 328 223 174 408 315 411 313 4 -1 89 -92 189 -202z"/>
<path d="M8761 5257 l-482 -282 6 -88 7 -88 150 -212 c83 -117 152 -214 154
-216 4 -5 13 -7 464 -122 195 -49 362 -92 371 -95 11 -3 85 78 245 267 252
298 242 280 243 426 l1 71 -227 208 c-126 114 -278 254 -339 310 l-110 103
-483 -282z m798 -76 l311 -285 -1 -55 c-1 -115 0 -113 -219 -372 -113 -133
-208 -247 -212 -252 -5 -8 -503 112 -786 189 -15 4 -71 74 -167 208 -141 199
-143 202 -150 266 l-6 65 448 262 c246 145 453 262 459 260 6 -1 151 -130 323
-286z"/>
<path d="M535 5340 c-44 -11 -182 -40 -307 -67 l-228 -47 0 -533 0 -533 287 2
286 3 188 278 189 278 -144 317 c-163 361 -138 333 -271 302z m235 -344 l122
-269 -174 -258 -173 -258 -248 -1 -247 0 2 488 3 487 285 60 c282 60 285 61
296 40 7 -11 67 -141 134 -289z"/>
<path d="M11401 5078 c-5 -18 -78 -249 -161 -513 -83 -264 -152 -485 -154
-491 -6 -16 650 -358 671 -349 10 3 194 114 410 246 374 229 392 242 381 262
-27 52 -451 793 -457 799 -5 6 -628 78 -673 78 -3 0 -11 -15 -17 -32z m344
-53 c138 -14 264 -27 282 -30 30 -5 43 -25 249 -386 119 -208 215 -381 213
-382 -2 -2 -161 -99 -354 -217 -192 -117 -359 -219 -370 -226 -18 -11 -54 5
-320 146 -165 87 -299 162 -298 167 1 8 290 928 297 949 3 6 15 10 28 8 13 -2
136 -15 273 -29z"/>
<path d="M4219 4328 c-211 -315 -384 -578 -384 -585 0 -7 66 -53 147 -102
l147 -89 721 257 c396 142 722 260 725 263 6 6 -210 557 -223 570 -5 5 -738
258 -748 258 -1 0 -174 -257 -385 -572z m756 393 c181 -62 333 -115 337 -119
17 -18 200 -494 192 -501 -5 -5 -315 -117 -689 -251 l-679 -242 -31 18 c-85
49 -205 126 -205 130 0 17 726 1084 734 1081 6 -3 159 -55 341 -116z"/>
<path d="M7740 4360 c-272 -204 -496 -374 -498 -378 -1 -4 172 -176 384 -382
l386 -373 60 12 c33 7 69 16 81 21 19 7 51 93 200 538 l178 529 -141 199 c-78
109 -145 200 -149 202 -3 1 -229 -165 -501 -368z m605 144 c61 -86 114 -166
118 -178 6 -15 -35 -150 -161 -521 -184 -542 -164 -499 -244 -519 -26 -6 -54
19 -382 336 -195 189 -354 348 -353 353 0 9 895 684 907 684 3 0 55 -70 115
-155z"/>
<path d="M989 4641 c-14 -20 -99 -145 -189 -278 l-163 -243 233 -532 c128
-293 233 -534 234 -534 1 -1 301 -31 373 -37 17 -2 105 104 462 557 243 308
441 563 441 568 0 9 -358 418 -366 418 -3 0 -474 55 -889 103 l-111 13 -25
-35z m503 -71 c238 -27 449 -53 469 -56 32 -5 55 -27 198 -190 l162 -184 -422
-535 c-337 -428 -426 -535 -444 -535 -51 0 -310 31 -316 38 -10 11 -439 991
-439 1003 0 18 334 509 347 509 6 0 206 -22 445 -50z"/>
<path d="M9730 4364 c-124 -146 -224 -273 -223 -283 1 -9 50 -234 108 -501 59
-267 109 -500 112 -517 3 -18 12 -33 19 -33 8 0 117 25 242 55 l229 56 352
441 c194 242 349 444 344 448 -16 14 -944 600 -951 600 -4 0 -108 -120 -232
-266z m798 -149 c171 -108 312 -201 312 -206 0 -9 -637 -810 -652 -820 -13 -8
-408 -102 -412 -98 -2 2 -20 78 -40 169 -19 91 -67 311 -106 490 -56 253 -69
329 -60 343 6 10 98 121 206 247 l195 229 122 -78 c67 -42 263 -167 435 -276z"/>
<path d="M8600 4285 c0 -2 -269 -794 -314 -924 -20 -58 -33 -108 -29 -112 5
-4 269 -134 588 -289 319 -155 583 -284 587 -286 9 -6 228 301 228 319 0 9
-20 107 -44 219 -25 112 -77 349 -116 528 -39 179 -74 328 -78 332 -4 4 -167
47 -362 97 -195 50 -379 97 -407 104 -29 8 -53 13 -53 12z m289 -125 c130 -33
294 -75 366 -93 l129 -33 113 -515 c62 -283 113 -516 113 -519 0 -8 -180 -255
-189 -258 -7 -2 -703 334 -998 481 l-112 57 26 72 c36 105 293 862 293 865 0
8 39 -1 259 -57z"/>
<path d="M12208 3905 l-413 -253 -6 -119 c-7 -120 -12 -843 -7 -848 2 -2 219
-42 483 -89 264 -47 492 -89 508 -92 l27 -6 0 811 c0 763 -1 810 -17 814 -16
5 -90 20 -145 31 -9 2 -203 -110 -430 -249z m525 179 c16 -5 17 -50 17 -766 0
-719 -1 -760 -17 -756 -10 2 -217 40 -460 84 l-443 79 1 335 c1 184 4 386 8
449 l6 114 390 239 c388 238 390 239 435 233 25 -3 53 -8 63 -11z"/>
<path d="M2015 3543 c-242 -307 -440 -565 -439 -574 0 -9 38 -68 84 -131 l85
-115 592 -158 c326 -87 595 -158 599 -159 5 -1 466 1255 480 1310 5 18 -26 45
-200 178 l-206 157 -192 18 c-106 11 -231 22 -278 26 l-85 7 -440 -559z m727
483 l247 -23 103 -79 c244 -185 270 -207 265 -223 -11 -43 -441 -1217 -448
-1225 -5 -6 -126 22 -296 68 -834 222 -835 223 -854 247 -10 13 -44 59 -75
102 l-56 77 38 50 c614 781 811 1029 819 1029 6 0 121 -10 257 -23z"/>
<path d="M0 3461 l0 -618 83 -11 c45 -6 186 -23 312 -38 l230 -27 202 132 201
132 -55 127 c-31 70 -134 305 -229 522 l-173 395 -285 3 -286 2 0 -619z m744
92 c115 -262 211 -484 213 -492 2 -11 -48 -49 -171 -129 l-175 -113 -258 31
c-142 17 -268 33 -280 36 l-23 4 0 570 0 570 243 0 242 0 209 -477z"/>
<path d="M4911 3750 c-381 -137 -695 -251 -696 -252 -2 -2 -6 -14 -9 -28 -4
-19 38 -109 187 -394 105 -203 196 -368 201 -366 5 1 12 -4 16 -10 6 -9 102
-5 406 19 220 17 405 31 412 31 6 0 12 7 12 15 0 8 6 12 13 9 10 -3 46 80 126
293 62 164 152 399 198 521 59 154 82 227 75 234 -6 6 -9 16 -6 22 5 15 -193
149 -211 142 -8 -3 -15 -1 -15 4 0 6 -3 10 -7 9 -5 0 -320 -113 -702 -249z
m804 134 c53 -36 95 -70 93 -74 -2 -4 -88 -232 -192 -506 -104 -274 -190 -500
-190 -501 -3 -6 -802 -62 -804 -56 -2 5 -85 166 -186 358 -114 218 -179 352
-172 356 6 4 220 81 476 173 256 91 557 199 670 240 113 41 206 75 208 75 1 1
45 -29 97 -65z"/>
<path d="M10653 3560 l-351 -440 481 -244 c265 -134 536 -271 602 -304 l119
-59 98 80 98 80 0 202 c0 111 3 330 6 486 l7 284 -339 178 c-187 97 -346 177
-354 177 -8 0 -173 -198 -367 -440z m699 218 l310 -163 -6 -194 c-3 -107 -6
-314 -6 -460 l-1 -266 -77 -62 -76 -61 -556 281 c-305 154 -556 281 -558 282
-6 4 641 805 650 805 5 0 149 -73 320 -162z"/>
<path d="M6605 3929 c-38 -28 -78 -56 -87 -63 -16 -11 -2 -61 173 -617 104
-332 203 -644 218 -694 24 -73 33 -91 51 -93 11 -2 115 -13 230 -26 l210 -22
267 370 c148 203 271 375 276 382 5 8 -122 137 -389 396 l-396 383 -156 11
c-87 7 -195 15 -242 18 l-85 5 -70 -50z m345 -20 l185 -12 250 -242 c138 -133
305 -295 373 -360 68 -65 121 -123 118 -130 -2 -6 -115 -165 -251 -353 -174
-241 -253 -342 -266 -342 -46 0 -374 41 -380 48 -4 4 -93 282 -199 617 -105
336 -198 630 -206 654 -7 25 -12 46 -10 48 2 2 32 24 67 48 54 38 70 45 99 41
19 -3 118 -11 220 -17z"/>
<path d="M6113 3823 c-122 -3 -143 -6 -143 -19 0 -10 -6 -14 -15 -10 -8 3 -15
4 -15 2 0 -1 -90 -238 -200 -526 -109 -288 -196 -528 -192 -534 3 -6 7 -17 7
-24 0 -7 133 -172 295 -366 251 -299 299 -352 320 -351 31 2 682 434 673 448
-3 5 -1 12 4 16 6 3 -38 156 -104 366 -62 198 -157 497 -209 665 -58 185 -103
312 -115 323 -14 13 -33 17 -91 15 -40 -1 -137 -4 -215 -5z m301 -120 c170
-541 386 -1231 386 -1236 0 -4 -141 -101 -314 -216 l-314 -210 -278 332 c-152
183 -283 339 -290 347 -11 13 16 93 171 500 102 267 191 500 200 517 l14 32
153 4 c84 1 174 4 200 5 l47 2 25 -77z"/>
<path d="M3516 3693 c-3 -8 -10 -12 -15 -9 -11 7 9 61 -265 -694 -156 -429
-220 -619 -213 -627 6 -9 6 -13 -1 -13 -5 0 4 -36 21 -80 22 -56 36 -78 46
-75 8 3 11 0 8 -8 -6 -16 675 -330 684 -315 4 7 9 7 13 0 6 -10 516 226 541
251 19 20 194 507 184 513 -5 3 -7 10 -3 15 6 11 -392 785 -418 811 -9 9 -15
18 -13 20 2 2 -69 48 -158 102 -151 92 -167 99 -232 106 -148 17 -174 18 -179
3z m379 -149 l160 -96 208 -398 c114 -219 207 -405 207 -414 0 -13 -165 -475
-172 -481 -9 -8 -505 -238 -513 -238 -17 0 -649 293 -661 306 -6 6 -22 40 -37
74 l-26 62 225 618 c123 340 230 631 236 647 l12 29 100 -7 101 -7 160 -95z"/>
<path d="M8105 3167 l-80 -22 -232 -320 c-128 -176 -253 -350 -279 -387 l-46
-67 278 -377 c154 -208 282 -381 285 -386 3 -4 71 -4 151 1 l146 9 541 487
c298 268 540 489 538 491 -7 7 -1210 594 -1216 593 -3 0 -42 -10 -86 -22z
m656 -309 c308 -150 559 -275 558 -278 0 -3 -228 -209 -506 -459 l-505 -453
-121 -8 c-67 -4 -125 -5 -129 -2 -3 4 -124 166 -267 360 -166 225 -258 358
-254 366 5 7 124 172 265 367 l257 355 48 11 c26 6 59 11 72 12 13 0 273 -121
582 -271z"/>
<path d="M9961 2999 c-128 -32 -235 -60 -236 -61 -1 -2 -54 -76 -118 -165 -64
-90 -117 -169 -117 -177 0 -13 589 -880 613 -902 9 -8 57 -1 182 26 94 20 352
76 575 124 223 48 413 89 422 92 9 3 20 15 23 27 4 12 40 125 81 251 41 126
73 230 72 232 -2 1 -275 140 -608 308 -354 180 -615 306 -630 305 -14 -1 -130
-27 -259 -60z m848 -280 c317 -161 579 -294 583 -298 4 -4 -126 -427 -136
-438 -1 -1 -127 -29 -281 -62 -154 -33 -406 -87 -560 -120 -221 -48 -282 -58
-291 -48 -7 6 -103 145 -214 307 -112 162 -240 349 -285 415 l-83 120 108 150
108 150 224 56 c122 32 229 57 237 58 8 1 273 -130 590 -290z"/>
<path d="M885 2844 c-104 -69 -195 -128 -202 -132 -8 -5 -20 -124 -38 -362
-14 -195 -38 -523 -53 -728 l-28 -374 216 -145 c118 -80 222 -148 230 -150 14
-4 606 267 620 284 4 5 17 331 29 725 l23 716 -95 129 -94 128 -164 17 c-263
27 -225 36 -444 -108z m410 60 l171 -17 83 -114 82 -113 -16 -487 c-9 -269
-19 -582 -23 -697 l-7 -209 -275 -128 c-151 -71 -281 -129 -288 -129 -7 0
-101 59 -208 131 -151 102 -194 136 -194 152 0 35 100 1380 102 1383 24 21
377 244 388 244 8 0 92 -7 185 -16z"/>
<path d="M0 2015 l0 -745 244 0 243 0 7 83 c3 45 20 267 36 492 16 226 37 506
46 624 8 117 13 215 10 218 -5 6 -523 72 -563 73 l-23 0 0 -745z m312 659
l227 -27 -5 -46 c-4 -44 -16 -211 -64 -886 -11 -159 -23 -314 -26 -342 l-5
-53 -195 0 -194 0 0 696 c0 657 1 695 18 690 9 -2 119 -17 244 -32z"/>
<path d="M4975 2639 c-199 -17 -351 -33 -353 -39 -2 -5 -9 -10 -16 -10 -16 0
-176 -447 -172 -482 2 -19 83 -110 301 -338 165 -171 304 -309 311 -306 6 2
16 0 21 -5 6 -6 148 53 374 154 200 90 424 191 498 224 121 54 134 63 137 87
2 23 -45 84 -293 379 -162 194 -301 351 -309 351 -8 -1 -14 2 -14 7 0 14 -104
9 -485 -22z m760 -355 c154 -185 280 -341 280 -346 0 -6 -214 -107 -475 -225
l-475 -214 -55 59 c-30 33 -162 170 -292 304 -131 135 -238 249 -238 253 0 14
152 430 160 438 7 8 657 64 760 65 l55 1 280 -335z"/>
<path d="M1756 2536 c-3 -55 -13 -333 -21 -616 -8 -283 -17 -552 -20 -597 -4
-46 -2 -83 2 -83 4 0 134 -23 288 -50 153 -27 282 -46 286 -42 3 4 156 218
339 477 184 259 344 484 356 500 l22 30 -37 84 -36 85 -440 118 c-242 65 -506
135 -587 157 l-146 39 -6 -102z m570 -102 c278 -74 522 -141 541 -147 29 -10
39 -21 59 -69 l24 -57 -341 -478 c-187 -263 -346 -479 -353 -481 -15 -3 -478
77 -485 84 -6 5 27 1135 35 1222 4 34 8 62 10 62 2 0 232 -61 510 -136z"/>
<path d="M11644 2526 l-102 -84 -86 -265 -86 -265 225 -455 c124 -251 228
-458 232 -460 5 -3 107 26 228 64 121 38 338 106 483 151 l262 81 0 563 0 562
-27 6 c-36 7 -1021 186 -1025 186 -2 0 -49 -38 -104 -84z m1014 -132 l92 -16
0 -523 0 -523 -62 -21 c-35 -11 -196 -61 -358 -111 -162 -50 -335 -104 -384
-120 -49 -17 -91 -29 -92 -27 -1 1 -98 196 -216 432 l-215 430 81 248 81 249
88 72 87 72 403 -72 c221 -40 444 -81 495 -90z"/>
<path d="M8917 2044 l-517 -466 27 -34 c16 -18 179 -202 363 -407 l335 -374
110 -8 c496 -32 661 -41 666 -36 4 3 37 200 73 436 37 237 68 439 71 451 3 15
-77 140 -296 460 -165 241 -303 440 -307 442 -4 1 -240 -208 -525 -464z m1073
-444 c-1 -14 -29 -205 -64 -425 -58 -371 -64 -400 -83 -403 -11 -2 -165 6
-342 17 -177 12 -328 21 -335 21 -8 0 -126 125 -262 277 -137 153 -291 324
-343 381 -51 57 -90 107 -85 112 5 4 222 199 483 433 l473 426 279 -407 c187
-272 279 -415 279 -432z"/>
<path d="M6557 2145 c-202 -135 -367 -251 -367 -257 0 -6 68 -196 151 -422 82
-226 182 -499 221 -606 39 -107 74 -199 78 -203 4 -4 128 26 276 67 148 42
346 97 439 122 l171 47 222 333 222 333 -287 389 -287 389 -221 22 c-121 12
-227 24 -235 27 -9 2 -181 -106 -383 -241z m603 165 c96 -11 182 -20 191 -20
15 0 530 -684 545 -723 3 -9 -74 -135 -196 -320 -173 -263 -206 -307 -233
-316 -18 -5 -140 -40 -272 -76 -132 -37 -302 -84 -379 -106 -76 -21 -140 -39
-141 -39 -7 0 -426 1152 -423 1161 2 5 153 110 337 234 258 174 341 225 365
225 17 0 110 -9 206 -20z"/>
<path d="M2708 1600 l-356 -499 345 -393 c190 -216 355 -403 367 -415 l21 -22
300 225 300 225 31 532 c17 293 30 533 29 534 -2 3 -675 313 -679 313 -1 0
-162 -225 -358 -500z m950 174 c40 -18 39 17 7 -529 -14 -231 -25 -437 -25
-457 0 -38 -1 -38 -275 -244 -152 -114 -277 -205 -278 -203 -2 2 -153 174
-336 382 -183 208 -331 381 -329 386 2 4 151 215 331 468 l328 461 272 -125
c150 -69 287 -131 305 -139z"/>
<path d="M4087 1911 c-162 -76 -245 -120 -242 -128 2 -7 -2 -13 -9 -13 -10 0
-15 -29 -19 -112 -4 -62 -16 -288 -29 -502 -17 -299 -19 -391 -10 -394 7 -2
12 -10 12 -17 0 -9 16 -16 43 -20 740 -108 1003 -141 1010 -128 5 7 12 11 17
8 10 -6 15 18 85 429 30 181 52 332 48 335 -5 3 -8 11 -8 17 0 7 -136 153
-301 325 -224 233 -308 314 -326 315 -14 1 -136 -51 -271 -115z m350 -15 c43
-46 176 -185 295 -308 l217 -224 -61 -360 c-33 -197 -62 -361 -64 -363 -5 -5
-983 132 -996 140 -10 7 39 958 51 971 7 7 462 226 473 227 3 1 42 -37 85 -83z"/>
<path d="M10745 1741 c-297 -65 -558 -122 -580 -127 -38 -9 -40 -12 -48 -59
-5 -28 -36 -228 -71 -445 -54 -346 -60 -396 -47 -402 29 -12 1574 -199 1582
-191 4 4 47 102 95 216 l88 209 -229 459 c-127 252 -234 459 -240 458 -5 -1
-253 -54 -550 -118z m750 -371 l215 -429 -82 -190 c-78 -184 -82 -190 -107
-185 -14 2 -352 45 -750 95 -399 49 -726 90 -727 92 -1 1 2 29 8 62 5 33 33
215 63 404 30 189 55 344 57 345 5 4 1072 234 1090 235 14 1 68 -100 233 -429z"/>
<path d="M5593 1597 c-271 -122 -493 -227 -493 -234 0 -6 -5 -13 -12 -15 -14
-5 -148 -779 -137 -794 5 -6 6 -13 3 -16 -8 -9 377 -529 387 -522 5 3 9 0 9
-5 0 -8 136 -11 435 -11 283 0 435 3 435 10 0 6 6 10 13 10 14 0 322 543 322
568 0 9 3 19 7 22 4 3 -72 222 -168 485 -97 264 -194 532 -217 595 -23 63 -47
115 -54 115 -6 0 -15 3 -19 8 -4 4 -10 7 -13 6 -3 0 -228 -100 -498 -222z
m627 -174 c68 -186 163 -445 211 -577 l87 -238 -157 -277 -157 -276 -419 -3
-420 -2 -186 253 -185 254 65 381 c36 210 71 386 76 391 12 12 935 429 951
430 6 1 67 -151 134 -336z"/>
<path d="M8151 1530 c-62 -4 -116 -12 -120 -17 -3 -6 -102 -155 -219 -331
l-213 -319 328 -431 328 -431 72 -1 72 0 323 355 c178 196 323 361 323 368 0
7 -162 193 -360 415 -330 369 -362 402 -390 400 -16 0 -81 -4 -144 -8z m495
-424 c186 -209 338 -381 338 -384 -1 -2 -138 -154 -304 -338 l-303 -334 -47 0
-47 0 -284 372 c-156 204 -296 388 -311 408 l-27 36 196 295 c107 162 199 298
204 303 8 9 175 25 225 22 14 -1 131 -125 360 -380z"/>
<path d="M12312 1060 c-260 -81 -475 -149 -476 -151 -10 -11 -186 -437 -186
-449 0 -8 23 -115 52 -238 l51 -222 524 0 523 0 0 605 c0 333 -3 605 -7 604
-5 0 -221 -67 -481 -149z m438 -465 l0 -545 -478 0 -479 0 -47 204 -48 203 88
207 87 207 121 37 c66 20 258 80 426 133 168 53 311 97 318 98 9 1 12 -114 12
-544z"/>
<path d="M0 595 l0 -595 468 2 467 3 17 435 c14 344 15 437 5 446 -6 6 -109
77 -229 158 l-216 146 -256 0 -256 0 0 -595z m708 403 l212 -143 -5 -65 c-2
-36 -10 -217 -16 -402 l-12 -338 -419 0 -418 0 0 545 0 545 222 0 223 0 213
-142z"/>
<path d="M1370 1025 c-168 -79 -309 -145 -313 -147 -5 -2 -15 -159 -22 -348
-8 -190 -16 -387 -19 -438 l-5 -92 999 0 c793 0 1000 3 1000 13 0 6 6 52 14
101 l13 90 -365 415 c-201 229 -370 422 -377 429 -6 7 -137 35 -291 62 -153
27 -290 52 -304 54 -18 3 -116 -38 -330 -139z m625 37 l259 -47 156 -176 c85
-96 249 -282 364 -412 l208 -238 -8 -67 -9 -67 -947 -3 -948 -2 0 82 c1 116
27 708 31 711 2 2 130 62 284 134 191 90 291 131 315 131 19 0 152 -21 295
-46z"/>
<path d="M7205 726 c-159 -45 -351 -99 -426 -120 l-136 -38 -157 -277 c-86
-153 -156 -280 -156 -284 0 -4 412 -7 915 -7 l914 0 -307 403 c-249 325 -313
402 -333 404 -13 0 -154 -36 -314 -81z m580 -319 c146 -192 265 -351 262 -353
-2 -2 -371 -3 -820 -2 l-816 3 133 234 132 235 205 57 c112 32 299 84 414 117
116 33 213 59 217 59 3 -1 126 -159 273 -350z"/>
<path d="M8815 343 l-306 -338 682 -3 c375 -1 684 -1 685 1 7 7 22 622 16 628
-6 6 -673 50 -744 49 -22 0 -77 -55 -333 -337z m695 266 c184 -12 336 -22 336
-23 3 -3 -17 -530 -20 -533 -1 -2 -273 -2 -603 -1 l-600 3 261 288 c143 158
267 287 276 287 8 0 166 -9 350 -21z"/>
<path d="M3425 428 l-310 -233 -14 -93 c-7 -51 -11 -95 -9 -97 3 -3 487 -4
1076 -3 l1070 3 -177 242 c-97 133 -179 244 -182 247 -2 3 -248 39 -544 81
-297 42 -554 78 -570 81 -27 5 -63 -19 -340 -228z m894 98 c342 -48 528 -79
536 -87 8 -8 74 -97 149 -199 l134 -185 -990 -3 c-545 -1 -993 0 -996 3 -3 3
-1 29 4 59 l9 54 290 220 c234 177 295 219 315 216 14 -3 261 -38 549 -78z"/>
<path d="M9976 588 c-3 -24 -8 -166 -11 -315 l-7 -273 856 0 c678 0 856 3 855
13 0 6 -21 102 -48 212 l-47 200 -35 8 c-19 4 -360 48 -759 97 -399 50 -742
92 -762 96 l-37 6 -5 -44z m809 -110 c407 -50 742 -93 744 -94 2 -2 18 -67 37
-146 18 -79 36 -153 39 -165 l5 -23 -800 0 -800 0 5 237 c6 242 10 283 23 283
4 0 340 -41 747 -92z"/>
</g>
</svg>
