<?xml version="1.0" encoding="UTF-8" standalone="no"?>
<!DOCTYPE svg PUBLIC "-//W3C//DTD SVG 1.1//EN" "http://www.w3.org/Graphics/SVG/1.1/DTD/svg11.dtd">
<svg width="100%" height="100%" viewBox="0 0 24 24" version="1.1" xmlns="http://www.w3.org/2000/svg" xmlns:xlink="http://www.w3.org/1999/xlink" xml:space="preserve" xmlns:serif="http://www.serif.com/" style="fill-rule:evenodd;clip-rule:evenodd;stroke-linejoin:round;stroke-miterlimit:2;">
    <path d="M19.05,21.6L16.125,18.7L13.925,20.9L13.225,20.2C12.842,19.817 12.65,19.342 12.65,18.775C12.65,18.208 12.842,17.733 13.225,17.35L17.45,13.125C17.833,12.742 18.308,12.55 18.875,12.55C19.442,12.55 19.917,12.742 20.3,13.125L21,13.825L18.8,16.025L21.7,18.95C21.9,19.15 22,19.383 22,19.65C22,19.917 21.9,20.15 21.7,20.35L20.45,21.6C20.25,21.8 20.017,21.9 19.75,21.9C19.483,21.9 19.25,21.8 19.05,21.6ZM22,5.9L10.65,17.25L10.775,17.35C11.158,17.733 11.35,18.208 11.35,18.775C11.35,19.342 11.158,19.817 10.775,20.2L10.075,20.9L7.875,18.7L4.95,21.6C4.75,21.8 4.517,21.9 4.25,21.9C3.983,21.9 3.75,21.8 3.55,21.6L2.3,20.35C2.1,20.15 2,19.917 2,19.65C2,19.383 2.1,19.15 2.3,18.95L5.2,16.025L3,13.825L3.7,13.125C4.083,12.742 4.558,12.55 5.125,12.55C5.692,12.55 6.167,12.742 6.55,13.125L6.65,13.25L18,1.9L22,1.9L22,5.9ZM8.35,9.425L8.95,8.85L9.525,8.25L8.95,8.85L8.35,9.425ZM6.95,10.85L2,5.9L2,1.9L6,1.9L10.95,6.85L9.525,8.25L5.175,3.9L4,3.9L4,5.075L8.35,9.425L6.95,10.85ZM9.25,15.825L20,5.075L20,3.9L18.825,3.9L8.075,14.65L9.25,15.825ZM9.25,15.825L8.65,15.25L8.075,14.65L8.65,15.25L9.25,15.825Z" style="fill:rgb(175,175,175);fill-rule:nonzero;"/>
</svg>
