<?xml version="1.0" encoding="UTF-8" standalone="no"?>
<!DOCTYPE svg PUBLIC "-//W3C//DTD SVG 1.1//EN" "http://www.w3.org/Graphics/SVG/1.1/DTD/svg11.dtd">
<svg width="100%" height="100%" viewBox="0 0 107 105" version="1.1" xmlns="http://www.w3.org/2000/svg" xmlns:xlink="http://www.w3.org/1999/xlink" xml:space="preserve" xmlns:serif="http://www.serif.com/" style="fill-rule:evenodd;clip-rule:evenodd;stroke-linejoin:round;stroke-miterlimit:2;">
    <g transform="matrix(1,0,0,1,-116.364,-196.543)">
        <path d="M183.131,236.013L208.594,212.644C227.291,233.016 227.291,264.306 208.594,284.678L183.131,261.309L185.014,254.079L203.196,254.079L203.196,264.14L218.675,248.661L203.196,233.182L203.196,243.243L185.014,243.243L183.131,236.013Z" style="fill:rgb(44,44,44);"/>
    </g>
    <g transform="matrix(-1.83697e-16,1,-1,-1.83697e-16,301.801,-118.346)">
        <path d="M183.131,236.013L208.594,212.644C227.291,233.016 227.291,264.306 208.594,284.678L183.131,261.309L185.014,254.079L203.196,254.079L203.196,264.14L218.675,248.661L203.196,233.182L203.196,243.243L185.014,243.243L183.131,236.013Z" style="fill:rgb(44,44,44);"/>
    </g>
    <g transform="matrix(-1,9.95799e-17,-9.95799e-17,-1,222.617,300.798)">
        <path d="M183.131,236.013L208.594,212.644C227.291,233.016 227.291,264.306 208.594,284.678L183.131,261.309L185.014,254.079L203.196,254.079L203.196,264.14L218.675,248.661L203.196,233.182L203.196,243.243L185.014,243.243L183.131,236.013Z" style="fill:rgb(44,44,44);"/>
    </g>
    <g transform="matrix(8.41171e-17,-1,1,8.41171e-17,-195.54,222.617)">
        <path d="M183.131,236.013L208.594,212.644C227.291,233.016 227.291,264.306 208.594,284.678L183.131,261.309L185.014,254.079L203.196,254.079L203.196,264.14L218.675,248.661L203.196,233.182L203.196,243.243L185.014,243.243L183.131,236.013Z" style="fill:rgb(44,44,44);"/>
    </g>
</svg>
