<?xml version="1.0" encoding="UTF-8" standalone="no"?>
<!DOCTYPE svg PUBLIC "-//W3C//DTD SVG 1.1//EN" "http://www.w3.org/Graphics/SVG/1.1/DTD/svg11.dtd">
<svg width="100%" height="100%" viewBox="0 0 250 350" version="1.1" xmlns="http://www.w3.org/2000/svg" xmlns:xlink="http://www.w3.org/1999/xlink" xml:space="preserve" xmlns:serif="http://www.serif.com/" style="fill-rule:evenodd;clip-rule:evenodd;stroke-linecap:round;stroke-linejoin:round;stroke-miterlimit:1.5;">
    <g id="Fee-w" serif:id="Fee w" transform="matrix(0.800899,0,0,0.800899,9.94067,-2.21179)">
        <g transform="matrix(-0.950229,0.809975,-0.933486,-1.09513,215.143,89.9793)">
            <path d="M92.002,7.696C92.002,7.696 64.008,73.235 64.008,101.324C64.008,114.73 76.552,125.614 92.002,125.614C107.452,125.614 119.996,114.73 119.996,101.324C119.996,73.235 92.002,7.696 92.002,7.696Z" style="fill-opacity:0.75;"/>
        </g>
        <g transform="matrix(-0.035467,0.959576,-1.02151,-0.0377562,131.026,61.308)">
            <path d="M92.002,7.696C92.002,7.696 64.008,71.831 64.008,99.317C64.008,113.831 76.552,125.614 92.002,125.614C107.452,125.614 119.996,113.831 119.996,99.317C119.996,71.831 92.002,7.696 92.002,7.696Z" style="fill-opacity:0.75;"/>
        </g>
        <g transform="matrix(0.950229,0.809975,0.930644,-1.09179,72.0052,89.9536)">
            <path d="M92.002,7.696C92.002,7.696 64.008,73.184 64.008,101.25C64.008,114.697 76.552,125.614 92.002,125.614C107.452,125.614 119.996,114.697 119.996,101.25C119.996,73.184 92.002,7.696 92.002,7.696Z" style="fill-opacity:0.75;"/>
        </g>
        <g transform="matrix(0.035467,0.959576,1.02151,-0.0377562,156.1,61.308)">
            <path d="M92.002,7.696C92.002,7.696 64.008,71.831 64.008,99.317C64.008,113.831 76.552,125.614 92.002,125.614C107.452,125.614 119.996,113.831 119.996,99.317C119.996,71.831 92.002,7.696 92.002,7.696Z" style="fill-opacity:0.75;"/>
        </g>
        <g transform="matrix(1.2486,0,0,1.2486,-12.4119,2.76164)">
            <path d="M97.545,118.61C101.915,107.584 111.069,100.089 124.844,100.089C136.536,100.089 144.899,105.489 149.832,113.864C150.402,114.478 150.889,115.187 151.268,115.982L192.867,203.404C194.869,207.613 193.078,212.656 188.87,214.659C184.661,216.661 179.618,214.87 177.615,210.661L148.278,149.009C145.98,152.106 143.982,155.255 143.951,158.916C143.869,168.56 154.633,179.362 154.633,193.298C154.633,201.283 154.053,207.721 152.405,212.764L141.996,329.476C141.513,334.892 136.724,338.897 131.308,338.414C125.891,337.931 121.886,333.142 122.369,327.726L124.958,298.701C123.497,301.372 120.824,303.332 117.578,303.753C112.185,304.452 107.239,300.642 106.539,295.25L95.002,206.325C94.743,204.843 94.541,203.276 94.392,201.621L93.62,195.667C93.405,194.013 93.615,192.402 94.164,190.942C95.341,178.133 105.656,168.009 105.736,158.916C105.767,155.356 103.888,152.279 101.662,149.265L72.447,210.661C70.444,214.87 65.401,216.661 61.193,214.659C56.984,212.656 55.193,207.613 57.196,203.404L97.545,118.61ZM117.564,227.071C119.883,227.336 122.409,227.466 125.156,227.466C127.37,227.466 129.426,227.382 131.334,227.211L125.732,290.024L117.564,227.071ZM125,25.625C144.118,25.625 159.64,41.147 159.64,60.266C159.64,79.384 144.118,94.906 125,94.906C105.882,94.906 90.36,79.384 90.36,60.266C90.36,41.147 105.882,25.625 125,25.625Z" style="stroke:white;stroke-width:12.5px;"/>
        </g>
        <g transform="matrix(1.2486,0,0,1.2486,-12.4119,2.76164)">
            <path d="M140.781,111.93C138.426,113.267 137.18,115.995 137.762,118.684C137.813,118.922 137.878,119.155 137.957,119.381L137.491,120.643C136.596,123.097 137.321,125.847 139.308,127.541C141.295,129.235 144.126,129.515 146.407,128.243C146.407,128.243 147.731,127.505 150.072,126.166C166.391,131.726 202.266,143.002 219.854,142.352C235.175,141.785 247.154,128.887 246.588,113.566C246.022,98.245 233.123,86.266 217.802,86.832C215.677,86.911 213.3,87.179 210.734,87.602C222.457,79.098 232.924,70.503 239.154,63.194C251.414,48.811 249.691,27.179 235.307,14.919C220.924,2.659 199.293,4.382 187.032,18.766C170.108,38.621 148.82,91.049 140.781,111.93ZM111.883,119.384C112.078,118.816 112.193,118.214 112.215,117.593C112.302,115.245 111.066,113.064 109.046,111.925C100.959,90.994 79.532,38.386 62.54,18.451C50.279,4.068 28.648,2.344 14.265,14.604C-0.119,26.865 -1.842,48.496 10.418,62.879C16.728,70.282 27.362,79.005 39.25,87.626L39.25,87.626C36.63,87.189 34.203,86.912 32.038,86.832C16.717,86.266 3.819,98.245 3.252,113.566C2.686,128.887 14.665,141.785 29.986,142.352C47.576,143.002 83.459,131.722 99.775,126.164C102.108,127.502 103.427,128.239 103.427,128.239C105.708,129.516 108.543,129.237 110.532,127.541C112.522,125.846 113.245,123.091 112.347,120.636L111.883,119.384ZM145.703,116.544C152.778,97.972 174.526,43.072 191.789,22.82C201.811,11.062 219.495,9.653 231.253,19.676C243.011,29.698 244.42,47.381 234.397,59.14C222.415,73.197 194.291,92.032 172.452,105.558C188.197,99.582 206.774,93.494 218.033,93.078C229.907,92.639 239.903,101.923 240.342,113.797C240.781,125.671 231.497,135.667 219.623,136.106C201.562,136.773 163.644,124.277 149.42,119.332C145.609,121.532 143.363,122.785 143.363,122.785C143.363,122.785 144.02,120.982 145.208,117.846C144.339,117.535 143.871,117.362 143.871,117.362C143.871,117.362 144.519,117.068 145.703,116.544ZM77.572,105.627C61.792,99.631 43.111,93.496 31.807,93.078C19.933,92.639 9.937,101.923 9.498,113.797C9.059,125.671 18.343,135.667 30.217,136.106C48.283,136.774 86.215,124.27 100.431,119.329C104.235,121.53 106.478,122.785 106.478,122.785C106.478,122.785 105.818,120.984 104.626,117.849C105.499,117.535 105.97,117.362 105.97,117.362C105.97,117.362 105.317,117.066 104.127,116.54C97.011,97.925 75.116,42.84 57.783,22.505C47.76,10.747 30.077,9.338 18.319,19.361C6.561,29.383 5.152,47.067 15.175,58.825C27.251,72.993 55.635,92.019 77.572,105.627Z" style="fill:white;"/>
        </g>
        <g transform="matrix(0.743766,-0.0964956,0.140376,1.08199,1.63554,-20.5318)">
            <path d="M122.886,255.359C122.886,249.136 115.537,244.084 106.484,244.084C97.431,244.084 90.081,249.136 90.081,255.359L90.081,370.277C90.081,376.5 97.431,381.552 106.484,381.552C115.537,381.552 122.886,376.5 122.886,370.277L122.886,255.359Z"/>
        </g>
        <g transform="matrix(-0.747034,-0.0666224,-0.12757,1.43044,279.76,-113.387)">
            <path d="M122.886,252.65C122.886,247.922 115.537,244.084 106.484,244.084C97.431,244.084 90.081,247.922 90.081,252.65L90.081,372.986C90.081,377.714 97.431,381.552 106.484,381.552C115.537,381.552 122.886,377.714 122.886,372.986L122.886,252.65Z"/>
        </g>
        <g transform="matrix(0.658938,-0.313551,0.41543,0.873039,-62.6049,88.6681)">
            <path d="M261.136,161.262C261.136,155.243 254.661,150.356 246.686,150.356C238.711,150.356 232.236,155.243 232.236,161.262L232.236,286.29C232.236,292.31 238.711,297.197 246.686,297.197C254.661,297.197 261.136,292.31 261.136,286.29L261.136,161.262Z"/>
        </g>
        <g transform="matrix(-0.658938,-0.313551,-0.41543,0.873039,350.008,88.6681)">
            <path d="M261.136,161.262C261.136,155.243 254.661,150.356 246.686,150.356C238.711,150.356 232.236,155.243 232.236,161.262L232.236,286.29C232.236,292.31 238.711,297.197 246.686,297.197C254.661,297.197 261.136,292.31 261.136,286.29L261.136,161.262Z"/>
        </g>
        <g transform="matrix(1.2486,0,0,1.2486,-12.4119,2.76164)">
            <path d="M105.736,158.916C105.812,150.248 94.561,144.444 94.561,135.433C94.561,115.927 104.819,100.089 124.844,100.089C144.868,100.089 155.126,115.927 155.126,135.433C155.126,144.444 144.025,150.248 143.951,158.916C143.869,168.56 154.633,179.362 154.633,193.298C154.633,217.465 149.324,227.466 125.156,227.466C100.989,227.466 94.055,217.465 94.055,193.298C94.055,179.362 105.652,168.56 105.736,158.916Z"/>
        </g>
        <g id="Kopf" transform="matrix(1,0,0,1,-48.2506,-70.6867)">
            <circle cx="191.913" cy="148.696" r="43.252"/>
        </g>
    </g>
</svg>
