<?xml version="1.0" encoding="UTF-8" standalone="no"?>
<!DOCTYPE svg PUBLIC "-//W3C//DTD SVG 1.1//EN" "http://www.w3.org/Graphics/SVG/1.1/DTD/svg11.dtd">
<svg width="100%" height="100%" viewBox="0 0 24 24" version="1.1" xmlns="http://www.w3.org/2000/svg" xmlns:xlink="http://www.w3.org/1999/xlink" xml:space="preserve" xmlns:serif="http://www.serif.com/" style="fill-rule:evenodd;clip-rule:evenodd;stroke-linecap:round;stroke-linejoin:round;stroke-miterlimit:1.5;">
    <g id="Ebene1">
        <path d="M3.009,16.25C2.536,18.311 3.341,20.019 7.119,20.905C8.712,21.279 15.233,18.608 16.724,18.703C19.627,18.889 20.975,21.029 17.878,22.667C14.327,23.972 15.324,21.192 10.16,22.436" style="fill:none;stroke:rgb(107,75,53);stroke-width:1px;"/>
        <path d="M11.937,15.147C11.597,16.19 10.933,16.869 9.951,17.193C10.009,17.695 12.862,16.771 12.761,18.2C12.789,18.597 12.258,18.802 10.664,18.64C8.443,18.63 7.34,18.204 7.077,17.466C3.977,17.515 2.523,16.872 2.61,15.578C1.824,8.4 5.145,5.42 11.964,6.015L13.096,5.344C11.72,5.403 10.865,4.922 10.999,3.415C11.095,2.342 12.748,1.813 14.313,3.038C14.847,2.445 15.736,2.099 16.997,2.01C18.734,2.238 19.775,2.187 20.394,1.968C21.65,1.615 21.655,2.609 20.898,3.751C21.082,4.023 20.931,4.296 20.667,4.568C19.152,6.135 16.88,7.236 16.137,10.021C16.375,11.304 17.276,12.269 18.8,12.936C19.441,12.97 19.858,13.476 19.996,14.572C19.521,14.938 19.011,15.114 18.255,13.964C17.728,13.559 16.811,13.285 15.613,13.104L16.2,16.208L17.458,17.697C16.228,18.261 15.389,17.929 15.11,16.312C14.957,15.719 14.242,14.844 13.306,13.859L12.446,14.266C12.491,11.403 8.906,9.181 6.868,11.687C9.117,10.28 12.302,12.202 11.937,15.147ZM16.258,2.921C16.544,2.921 16.777,3.153 16.777,3.44C16.777,3.726 16.544,3.959 16.258,3.959C15.971,3.959 15.739,3.726 15.739,3.44C15.739,3.153 15.971,2.921 16.258,2.921Z" style="fill:rgb(107,75,53);"/>
    </g>
</svg>
